<?xml version="1.0" encoding="utf-8"?>
<!-- Generator: Adobe Illustrator 23.0.1, SVG Export Plug-In . SVG Version: 6.00 Build 0)  -->
<svg version="1.1" id="Layer_1" xmlns="http://www.w3.org/2000/svg" xmlns:xlink="http://www.w3.org/1999/xlink" x="0px" y="0px"
	 viewBox="0 0 200 200" style="enable-background:new 0 0 200 200;" xml:space="preserve">
<style type="text/css">
	.st0{fill:url(#SVGID_1_);}
	.st1{fill:none;stroke:#F9665E;stroke-miterlimit:10;}
	.st2{fill:url(#SVGID_2_);}
	.st3{fill:url(#SVGID_3_);}
	.st4{fill:url(#SVGID_4_);}
	.st5{fill:url(#SVGID_5_);}
	.st6{fill:url(#SVGID_6_);}
</style>
<linearGradient id="SVGID_1_" gradientUnits="userSpaceOnUse" x1="1.9476" y1="59.4573" x2="199.4213" y2="59.4573">
	<stop  offset="0" style="stop-color:#FF416C"/>
	<stop  offset="0.288" style="stop-color:#FC5166"/>
	<stop  offset="0.6854" style="stop-color:#FA6160"/>
	<stop  offset="1" style="stop-color:#F9665E"/>
</linearGradient>
<path class="st0" d="M17,18.7c0.4,0.5,8.4-7.1,19.7-10.8s13.1-5.3,21.1-6.1C64,1.2,69,0.6,69,0.7c0,0.1-11.2,1.2-11.2,1.1
	c0,0,3.4-0.5,5.5-0.7C67,0.7,77.3,0.2,87,2.3c17,3.7,30.4,11.6,30.6,11.4c0.2-0.3,6.3-3.2,6.3-3.2c0-0.5-0.1-5.7,3.3-8.6
	c0.9-0.8,3.1-2.4,5.9-1.8c1.8,0.4,3,1.6,3.5,2c3.1,3.1,2.9,8,2.9,8.8c1.9-1.6,3.6-2.3,4.8-2.7c1.5-0.5,6.2-2.1,8.5,0.6
	c0.3,0.4,0.5,0.7,0.8,1.4c0.2,0.5,2,4.4,0.9,8.8c0,0-0.2,0.7-2.9,5.6c0,0,2.7,10.8,13.6,10.8s17.9,0.8,21.1,2.1s15.4,14.5,12.7,28
	s-11.1,36.7-30.6,31.9S143,89.1,141,90.7s-4.8,4.5-5.2,4.5c0,0-1.8,3.3,0.2,17.9c0.4,0.9,0.8,2.2,0.4,3.4c-1.1,2.8-6.2,1.3-15.1,1.6
	c-9.7,0.3-13.6,2.4-16.5-1c-1.3-1.6-1.8-3.5-2.1-4.8l1.1-12.9l-1.8-2.1c0,0-4.1,6.9-25.2,5.3s-21.8-4.2-21.8-3.4
	c0,2.5,0.1,5,0.4,7.4c0.6,3.9,0.5,7.5,0.5,7.6c0,0.1,0,0.9-0.5,1.6c-0.7,0.8-1.6,0.6-1.7,0.6c-7.6-0.7-13.7-0.2-17.8,0.4
	c-5.4,0.8-9.5,2.1-11.3-0.5c-1.3-1.8,0-3.6-0.8-9.1c-0.2-1.7-0.9-5.8-3.3-9.7c-2.7-4.5-7.2-7.8-7.2-7.8S-5.9,51.4,9.3,32.4
	c0,0-11.6-16.4-5.7-19S11.1,11.5,17,18.7z"/>
<path class="st1" d="M49.9,109.9"/>
<path class="st1" d="M59.2,110.2"/>
<linearGradient id="SVGID_2_" gradientUnits="userSpaceOnUse" x1="-0.24" y1="166.9" x2="34.82" y2="166.9">
	<stop  offset="0" style="stop-color:#FF416C"/>
	<stop  offset="0.288" style="stop-color:#FC5166"/>
	<stop  offset="0.6854" style="stop-color:#FA6160"/>
	<stop  offset="1" style="stop-color:#F9665E"/>
</linearGradient>
<path class="st2" d="M34.8,134.5v64.8h-7v-30h-21v30h-7v-64.8h7v29.9h21v-29.9H34.8z"/>
<linearGradient id="SVGID_3_" gradientUnits="userSpaceOnUse" x1="50.18" y1="166.9" x2="57.19" y2="166.9">
	<stop  offset="0" style="stop-color:#FF416C"/>
	<stop  offset="0.288" style="stop-color:#FC5166"/>
	<stop  offset="0.6854" style="stop-color:#FA6160"/>
	<stop  offset="1" style="stop-color:#F9665E"/>
</linearGradient>
<path class="st3" d="M50.2,199.3v-64.8h7v64.8H50.2z"/>
<linearGradient id="SVGID_4_" gradientUnits="userSpaceOnUse" x1="72.56" y1="166.9" x2="106.94" y2="166.9">
	<stop  offset="0" style="stop-color:#FF416C"/>
	<stop  offset="0.288" style="stop-color:#FC5166"/>
	<stop  offset="0.6854" style="stop-color:#FA6160"/>
	<stop  offset="1" style="stop-color:#F9665E"/>
</linearGradient>
<path class="st4" d="M79.6,171.1v28.2h-7v-64.8h15.5c10.4,0,18.9,6.1,18.9,13.4v9.7c0,7.4-8.5,13.4-18.9,13.4H79.6z M88.1,166.1
	c6.6,0,11.9-3.8,11.9-8.4v-9.7c0-4.7-5.3-8.4-11.9-8.4h-8.5v26.6L88.1,166.1L88.1,166.1z"/>
<linearGradient id="SVGID_5_" gradientUnits="userSpaceOnUse" x1="118.8" y1="166.9" x2="153.19" y2="166.9">
	<stop  offset="0" style="stop-color:#FF416C"/>
	<stop  offset="0.288" style="stop-color:#FC5166"/>
	<stop  offset="0.6854" style="stop-color:#FA6160"/>
	<stop  offset="1" style="stop-color:#F9665E"/>
</linearGradient>
<path class="st5" d="M125.8,171.1v28.2h-7v-64.8h15.5c10.4,0,18.9,6.1,18.9,13.4v9.7c0,7.4-8.5,13.4-18.9,13.4H125.8z M134.3,166.1
	c6.6,0,11.9-3.8,11.9-8.4v-9.7c0-4.7-5.3-8.4-11.9-8.4h-8.5v26.6L134.3,166.1L134.3,166.1z"/>
<linearGradient id="SVGID_6_" gradientUnits="userSpaceOnUse" x1="164.36" y1="166.9" x2="199.42" y2="166.9">
	<stop  offset="0" style="stop-color:#FF416C"/>
	<stop  offset="0.288" style="stop-color:#FC5166"/>
	<stop  offset="0.6854" style="stop-color:#FA6160"/>
	<stop  offset="1" style="stop-color:#F9665E"/>
</linearGradient>
<path class="st6" d="M164.4,146c0-6.9,7.8-12.5,17.5-12.5c9.7,0,17.5,5.6,17.5,12.5v41.8c0,6.9-7.8,12.5-17.5,12.5
	c-9.7,0-17.5-5.6-17.5-12.5V146z M171.4,187.8c0,4.1,4.7,7.5,10.5,7.5s10.5-3.4,10.5-7.5V146c0-4.1-4.7-7.5-10.5-7.5
	s-10.5,3.4-10.5,7.5V187.8z"/>
</svg>
